<svg viewBox="0 0 171 62" fill="none" xmlns="http://www.w3.org/2000/svg">
<path d="M16.5534 25.9279L17.0109 17.1201C17.0327 16.5863 17.4794 16.3194 18.3509 16.3194C18.5252 16.3194 18.754 16.3303 19.0372 16.3521C19.3205 16.363 19.5111 16.3684 19.6091 16.3684C20.0776 16.3684 20.3009 16.619 20.2791 17.1201C20.2247 18.1115 20.1974 19.1791 20.1974 20.323C20.1974 20.7151 20.1974 21.238 20.1974 21.8917C20.2083 22.5453 20.2138 23.0029 20.2138 23.2643C20.2138 25.4431 19.8652 26.8484 19.1679 27.4803C18.3291 28.232 16.4118 28.6078 13.4159 28.6078C9.92986 28.6078 7.17368 27.6764 5.1474 25.8135C3.05576 23.8962 2.00994 21.2054 2.00994 17.7411C2.00994 13.8193 3.23551 10.611 5.68665 8.11626C8.1378 5.61064 11.3243 4.35784 15.2461 4.35784C16.2484 4.35784 17.3051 4.45043 18.4163 4.63563C20.0395 4.89709 20.8456 5.27293 20.8347 5.76316L20.802 7.10312L20.3445 7.62603C19.5166 7.40815 18.6886 7.19027 17.8607 6.97239C16.9238 6.73272 16.0632 6.61289 15.2788 6.61289C12.174 6.61289 9.70653 7.69139 7.87634 9.8484C6.1442 11.8856 5.27813 14.4947 5.27813 17.6757C5.27813 20.2249 6.01347 22.2948 7.48416 23.8853C8.99842 25.5303 11.0138 26.3528 13.5303 26.3528C14.6415 26.3528 15.6492 26.2111 16.5534 25.9279ZM34.5938 4.32515C37.6223 4.32515 40.019 5.4091 41.7838 7.577C43.407 9.59239 44.2186 12.1525 44.2186 15.2573C44.2186 18.7978 43.309 21.859 41.4897 24.4409C39.4525 27.3387 36.7345 28.7876 33.3356 28.7876C30.4487 28.7876 28.1119 27.7472 26.3253 25.6664C24.6149 23.6837 23.7598 21.2272 23.7598 18.2967C23.7598 14.5165 24.5931 11.3518 26.2599 8.80258C28.2099 5.81763 30.9879 4.32515 34.5938 4.32515ZM27.0279 18.1986C27.0279 20.3774 27.5509 22.2512 28.5967 23.8199C29.8059 25.6283 31.44 26.5325 33.499 26.5325C36.059 26.5325 38.0091 25.2198 39.349 22.5943C40.4166 20.5027 40.9504 18.0461 40.9504 15.2246C40.9504 12.9259 40.4711 10.9868 39.5124 9.40719C38.3686 7.52253 36.7181 6.58021 34.5611 6.58021C31.8594 6.58021 29.8549 7.92016 28.5477 10.6001C27.5345 12.659 27.0279 15.1919 27.0279 18.1986ZM51.6374 25.9279H60.2818C60.7284 25.9279 60.9518 26.2765 60.9518 26.9737C60.9518 27.7799 60.6903 28.183 60.1674 28.183H48.9902C48.5 28.183 48.2657 27.9487 48.2875 27.4803L49.4151 5.45268C49.4368 4.98424 49.7092 4.75002 50.2321 4.75002H51.9806C52.4708 4.75002 52.705 4.98424 52.6832 5.45268L51.6374 25.9279ZM63.5173 27.4803L64.6448 5.45268C64.6666 4.98424 64.939 4.75002 65.4619 4.75002H71.8512C75.0867 4.75002 77.6577 5.67056 79.5641 7.51164C81.4924 9.3854 82.4565 11.9291 82.4565 15.1429C82.4565 18.7379 81.3998 21.7773 79.2863 24.2611C77.0531 26.8757 74.1662 28.183 70.6256 28.183H64.22C63.7297 28.183 63.4955 27.9487 63.5173 27.4803ZM66.8672 25.9279H70.2661C73.0005 25.9279 75.212 24.8167 76.9005 22.5943C78.4257 20.5681 79.1883 18.1442 79.1883 15.3226C79.1883 12.9586 78.5238 11.0032 77.1947 9.45621C75.7894 7.81122 73.9265 6.98873 71.6061 6.98873H67.8477L66.8672 25.9279ZM91.0191 6.98873L90.5943 14.718H97.9477C98.3944 14.718 98.6177 15.0884 98.6177 15.8292C98.6177 16.7334 98.3562 17.1855 97.8333 17.1855H90.4962L90.0387 25.9279H99.8106C100.246 25.9279 100.464 26.2329 100.464 26.843C100.464 27.1589 100.432 27.5021 100.366 27.8725C100.181 28.0795 99.9467 28.183 99.6635 28.183H87.3914C86.9012 28.183 86.667 27.9487 86.6888 27.4803L87.8163 5.45268C87.8381 4.98424 88.1104 4.75002 88.6334 4.75002H100.432C100.922 4.75002 101.167 4.98424 101.167 5.45268C101.167 6.47671 100.889 6.98873 100.333 6.98873H91.0191ZM107.556 8.47576L106.576 27.4803C106.554 27.9269 106.265 28.1775 105.71 28.232C105.993 28.1993 105.557 28.183 104.402 28.183C103.934 28.183 103.711 27.9487 103.732 27.4803L104.86 5.48536C104.882 4.99513 105.138 4.75002 105.628 4.75002H107.736C108.39 4.75002 110.269 7.54977 113.374 13.1493C116.424 18.6834 118.21 22.4418 118.733 24.4245L119.714 5.48536C119.747 5.01692 120.03 4.75547 120.564 4.701C120.302 4.73368 120.749 4.75002 121.904 4.75002C122.394 4.75002 122.628 4.99513 122.606 5.48536L121.446 27.4803C121.413 27.9487 121.152 28.183 120.662 28.183H118.456L117.9 28.0032C117.203 27.306 115.525 24.5444 112.867 19.7183C109.969 14.4565 108.199 10.709 107.556 8.47576Z" fill="#E8E8E8"/>
<path d="M63.7229 31.6048C63.407 32.5962 61.1356 39.236 56.9088 51.5244C56.778 51.9057 56.3259 52.1236 55.5525 52.1781C55.7377 52.1672 55.2202 52.1617 54.0001 52.1617C53.1721 52.1617 52.1427 48.8173 50.9116 42.1284C50.1708 37.7708 49.4301 33.4078 48.6893 29.0393L49.2122 28.5491H51.2875L51.9901 29.0066C52.7963 33.5167 53.8857 40.2982 55.2583 49.3511C55.4871 47.3139 56.5656 43.7353 58.4938 38.6151C59.7249 35.4449 60.9559 32.2748 62.1869 29.1047L62.9876 28.5491H64.9975L65.8309 29.1373C66.6698 33.6148 67.8409 40.3527 69.3442 49.3511C70.1395 46.5731 71.2398 43.1688 72.6451 39.138C73.8326 35.7609 75.02 32.3837 76.2074 29.0066L76.8611 28.4837C78.1139 28.353 78.8874 28.4891 79.1815 28.8922C79.1161 29.3716 77.8415 32.9775 75.3577 39.7099C73.9088 43.61 72.4545 47.5155 70.9947 51.4264C70.8313 51.8839 70.3846 52.14 69.6547 52.1944C69.9597 52.1726 69.415 52.1617 68.0206 52.1617C67.8899 52.1617 67.7265 52.08 67.5304 51.9166C67.3343 51.7532 67.2254 51.6116 67.2036 51.4918C66.539 48.2018 65.8745 44.9118 65.21 41.6218C64.4147 37.6455 63.919 34.3065 63.7229 31.6048ZM81.077 51.2466L82.2046 29.219C82.2264 28.7506 82.4987 28.5164 83.0216 28.5164H84.7701C85.2603 28.5164 85.4946 28.7506 85.4728 29.219L84.3126 51.2466C84.2908 51.7151 84.0348 51.9493 83.5445 51.9493H81.7797C81.2895 51.9493 81.0553 51.7151 81.077 51.2466ZM93.9701 32.2421L92.9896 51.2466C92.9678 51.6933 92.6791 51.9439 92.1235 51.9983C92.4068 51.9657 91.971 51.9493 90.8163 51.9493C90.3478 51.9493 90.1245 51.7151 90.1463 51.2466L91.2738 29.2517C91.2956 28.7615 91.5516 28.5164 92.0418 28.5164H94.1498C94.8034 28.5164 96.6827 31.3161 99.7874 36.9156C102.838 42.4498 104.624 46.2082 105.147 48.1909L106.128 29.2517C106.16 28.7833 106.444 28.5218 106.977 28.4674C106.716 28.5 107.163 28.5164 108.317 28.5164C108.808 28.5164 109.042 28.7615 109.02 29.2517L107.86 51.2466C107.827 51.7151 107.566 51.9493 107.076 51.9493H104.869L104.314 51.7696C103.617 51.0723 101.939 48.3107 99.2809 43.4847C96.3831 38.2229 94.6128 34.4754 93.9701 32.2421ZM117.174 32.2421L116.194 51.2466C116.172 51.6933 115.883 51.9439 115.328 51.9983C115.611 51.9657 115.175 51.9493 114.02 51.9493C113.552 51.9493 113.329 51.7151 113.35 51.2466L114.478 29.2517C114.5 28.7615 114.756 28.5164 115.246 28.5164H117.354C118.008 28.5164 119.887 31.3161 122.992 36.9156C126.042 42.4498 127.829 46.2082 128.351 48.1909L129.332 29.2517C129.365 28.7833 129.648 28.5218 130.182 28.4674C129.92 28.5 130.367 28.5164 131.522 28.5164C132.012 28.5164 132.246 28.7615 132.224 29.2517L131.064 51.2466C131.031 51.7151 130.77 51.9493 130.28 51.9493H128.074L127.518 51.7696C126.821 51.0723 125.143 48.3107 122.485 43.4847C119.587 38.2229 117.817 34.4754 117.174 32.2421ZM141.228 30.7551L140.803 38.4844H148.157C148.603 38.4844 148.827 38.8548 148.827 39.5955C148.827 40.4997 148.565 40.9518 148.042 40.9518H140.705L140.248 49.6943H150.02C150.455 49.6943 150.673 49.9993 150.673 50.6094C150.673 50.9253 150.641 51.2684 150.575 51.6388C150.39 51.8458 150.156 51.9493 149.872 51.9493H137.6C137.11 51.9493 136.876 51.7151 136.898 51.2466L138.025 29.219C138.047 28.7506 138.319 28.5164 138.842 28.5164H150.641C151.131 28.5164 151.376 28.7506 151.376 29.219C151.376 30.2431 151.098 30.7551 150.542 30.7551H141.228ZM158.092 40.7394C158.059 42.8855 158.027 45.0316 157.994 47.1777C157.852 50.3588 157.438 51.9493 156.752 51.9493H154.987C154.497 51.9493 154.263 51.7042 154.285 51.214L155.412 29.219C155.434 28.7506 155.706 28.5164 156.229 28.5164H162.194C164.187 28.5164 165.772 28.9195 166.949 29.7256C168.321 30.6625 169.008 32.0842 169.008 33.9906C169.008 35.799 168.398 37.3133 167.178 38.5334C165.968 39.7535 164.46 40.3854 162.651 40.4289L170.348 51.4918L169.857 51.9493H166.981C166.655 51.9493 165.364 50.239 163.109 46.8182C161.812 44.792 160.51 42.7657 159.203 40.7394H158.092ZM158.19 38.4844H161.066C162.373 38.4844 163.457 38.1575 164.318 37.5039C165.266 36.774 165.74 35.7772 165.74 34.5135C165.74 32.0079 164.443 30.7551 161.85 30.7551H158.615L158.19 38.4844Z" fill="#E8E8E8"/>
</svg>
